<mxfile host="app.diagrams.net" modified="2023-05-16T10:19:56.194Z" agent="Mozilla/5.0 (Windows NT 10.0; Win64; x64) AppleWebKit/537.36 (KHTML, like Gecko) Chrome/113.0.0.0 Safari/537.36" etag="vl4Q0CpeUGgC2JPf7drJ" version="21.3.2" type="device">
  <diagram name="Страница 1" id="jNwkKZ2FU6foHGc0oS_T">
    <mxGraphModel dx="993" dy="1717" grid="1" gridSize="10" guides="1" tooltips="1" connect="1" arrows="1" fold="1" page="1" pageScale="1" pageWidth="827" pageHeight="1169" math="0" shadow="0">
      <root>
        <mxCell id="0" />
        <mxCell id="1" parent="0" />
        <mxCell id="oLl1OlylzwqFJzHjMI7Q-43" value="" style="rounded=0;whiteSpace=wrap;html=1;" parent="1" vertex="1">
          <mxGeometry x="18" y="-1160" width="790" height="550" as="geometry" />
        </mxCell>
        <mxCell id="oLl1OlylzwqFJzHjMI7Q-44" value="&lt;span style=&quot;border-color: var(--border-color);&quot;&gt;&lt;b&gt;Customer`s computer&lt;/b&gt;&lt;br&gt;&lt;font style=&quot;font-size: 10px;&quot;&gt;Deployment node: Microsoft Windows&lt;/font&gt;&lt;br&gt;&lt;/span&gt;" style="text;html=1;strokeColor=none;fillColor=none;align=left;verticalAlign=middle;whiteSpace=wrap;rounded=0;" parent="1" vertex="1">
          <mxGeometry x="28" y="-680" width="180" height="40" as="geometry" />
        </mxCell>
        <mxCell id="oLl1OlylzwqFJzHjMI7Q-45" value="&lt;font style=&quot;font-size: 10px;&quot;&gt;&lt;br&gt;&lt;/font&gt;" style="rounded=0;whiteSpace=wrap;html=1;" parent="1" vertex="1">
          <mxGeometry x="28" y="-1115" width="230" height="165" as="geometry" />
        </mxCell>
        <mxCell id="oLl1OlylzwqFJzHjMI7Q-46" value="&lt;span style=&quot;border-color: var(--border-color);&quot;&gt;&lt;b&gt;Web browser&lt;/b&gt;&lt;br&gt;&lt;font style=&quot;font-size: 10px;&quot;&gt;Deployment node: Chrome&lt;/font&gt;&lt;br&gt;&lt;/span&gt;" style="text;html=1;strokeColor=none;fillColor=none;align=left;verticalAlign=middle;whiteSpace=wrap;rounded=0;" parent="1" vertex="1">
          <mxGeometry x="33" y="-995" width="180" height="40" as="geometry" />
        </mxCell>
        <mxCell id="oLl1OlylzwqFJzHjMI7Q-56" value="&lt;font style=&quot;font-size: 10px;&quot;&gt;&lt;br&gt;&lt;/font&gt;" style="rounded=0;whiteSpace=wrap;html=1;" parent="1" vertex="1">
          <mxGeometry x="45.5" y="-1105" width="195" height="110" as="geometry" />
        </mxCell>
        <mxCell id="oLl1OlylzwqFJzHjMI7Q-57" value="&lt;b&gt;Postman or swagger&lt;/b&gt;&lt;br&gt;&lt;br&gt;&lt;font style=&quot;font-size: 10px;&quot;&gt;Provides all of the project management system functionality via an endpoints&lt;/font&gt;" style="text;html=1;strokeColor=none;fillColor=none;align=center;verticalAlign=middle;whiteSpace=wrap;rounded=0;" parent="1" vertex="1">
          <mxGeometry x="48" y="-1105" width="190" height="110" as="geometry" />
        </mxCell>
        <mxCell id="oLl1OlylzwqFJzHjMI7Q-78" value="&lt;font style=&quot;font-size: 10px;&quot;&gt;&lt;br&gt;&lt;/font&gt;" style="rounded=0;whiteSpace=wrap;html=1;" parent="1" vertex="1">
          <mxGeometry x="368" y="-1145" width="420" height="515" as="geometry" />
        </mxCell>
        <mxCell id="oLl1OlylzwqFJzHjMI7Q-68" value="&lt;font style=&quot;font-size: 10px;&quot;&gt;&lt;br&gt;&lt;/font&gt;" style="rounded=0;whiteSpace=wrap;html=1;" parent="1" vertex="1">
          <mxGeometry x="389" y="-1126" width="258" height="221" as="geometry" />
        </mxCell>
        <mxCell id="oLl1OlylzwqFJzHjMI7Q-64" value="&lt;font style=&quot;font-size: 10px;&quot;&gt;&lt;br&gt;&lt;/font&gt;" style="rounded=0;whiteSpace=wrap;html=1;" parent="1" vertex="1">
          <mxGeometry x="403" y="-1115" width="230" height="165" as="geometry" />
        </mxCell>
        <mxCell id="oLl1OlylzwqFJzHjMI7Q-65" value="&lt;span style=&quot;border-color: var(--border-color);&quot;&gt;&lt;b&gt;Apache tomcat&lt;/b&gt;&lt;br&gt;&lt;font style=&quot;font-size: 10px;&quot;&gt;Deployment node: A&lt;/font&gt;&lt;span style=&quot;border-color: var(--border-color);&quot;&gt;&lt;font style=&quot;font-size: 10px;&quot;&gt;pache tomcat 8.x&lt;/font&gt;&lt;/span&gt;&lt;br&gt;&lt;/span&gt;" style="text;html=1;strokeColor=none;fillColor=none;align=left;verticalAlign=middle;whiteSpace=wrap;rounded=0;" parent="1" vertex="1">
          <mxGeometry x="408" y="-995" width="180" height="40" as="geometry" />
        </mxCell>
        <mxCell id="oLl1OlylzwqFJzHjMI7Q-66" value="&lt;font style=&quot;font-size: 10px;&quot;&gt;&lt;br&gt;&lt;/font&gt;" style="rounded=0;whiteSpace=wrap;html=1;" parent="1" vertex="1">
          <mxGeometry x="420.5" y="-1105" width="195" height="110" as="geometry" />
        </mxCell>
        <mxCell id="oLl1OlylzwqFJzHjMI7Q-67" value="&lt;b&gt;API application&lt;/b&gt;&lt;br&gt;&lt;br&gt;&lt;font style=&quot;font-size: 10px;&quot;&gt;Provides project management system functionality via a JSON/HTTP API&lt;/font&gt;" style="text;html=1;strokeColor=none;fillColor=none;align=center;verticalAlign=middle;whiteSpace=wrap;rounded=0;" parent="1" vertex="1">
          <mxGeometry x="423" y="-1105" width="190" height="110" as="geometry" />
        </mxCell>
        <mxCell id="oLl1OlylzwqFJzHjMI7Q-69" value="&lt;span style=&quot;border-color: var(--border-color);&quot;&gt;&lt;b&gt;Docker container&lt;/b&gt;&lt;br&gt;&lt;font style=&quot;font-size: 10px;&quot;&gt;Deployment node: Project-exec image&lt;/font&gt;&lt;br&gt;&lt;/span&gt;" style="text;html=1;strokeColor=none;fillColor=none;align=left;verticalAlign=middle;whiteSpace=wrap;rounded=0;" parent="1" vertex="1">
          <mxGeometry x="403" y="-950" width="180" height="40" as="geometry" />
        </mxCell>
        <mxCell id="oLl1OlylzwqFJzHjMI7Q-70" value="&lt;span style=&quot;border-color: var(--border-color);&quot;&gt;&lt;b&gt;&lt;font style=&quot;font-size: 16px;&quot;&gt;x5&lt;/font&gt;&lt;/b&gt;&lt;br&gt;&lt;/span&gt;" style="text;html=1;strokeColor=none;fillColor=none;align=left;verticalAlign=middle;whiteSpace=wrap;rounded=0;" parent="1" vertex="1">
          <mxGeometry x="622" y="-935" width="25" height="30" as="geometry" />
        </mxCell>
        <mxCell id="oLl1OlylzwqFJzHjMI7Q-75" value="&lt;font style=&quot;font-size: 10px;&quot;&gt;&lt;br&gt;&lt;/font&gt;" style="rounded=0;whiteSpace=wrap;html=1;" parent="1" vertex="1">
          <mxGeometry x="389" y="-885" width="220" height="200" as="geometry" />
        </mxCell>
        <mxCell id="oLl1OlylzwqFJzHjMI7Q-73" value="&lt;font style=&quot;font-size: 10px;&quot;&gt;&lt;br&gt;&lt;/font&gt;" style="rounded=0;whiteSpace=wrap;html=1;" parent="1" vertex="1">
          <mxGeometry x="403" y="-875" width="190" height="150" as="geometry" />
        </mxCell>
        <mxCell id="oLl1OlylzwqFJzHjMI7Q-6" value="&lt;b&gt;Database&lt;br&gt;&lt;/b&gt;&lt;font style=&quot;font-size: 10px;&quot;&gt;&lt;br&gt;Store projects data&lt;br&gt;&lt;/font&gt;" style="shape=cylinder3;whiteSpace=wrap;html=1;boundedLbl=1;backgroundOutline=1;size=15;" parent="1" vertex="1">
          <mxGeometry x="413" y="-865" width="170" height="100" as="geometry" />
        </mxCell>
        <mxCell id="oLl1OlylzwqFJzHjMI7Q-74" value="&lt;span style=&quot;border-color: var(--border-color);&quot;&gt;&lt;b&gt;PostgreSQL&lt;/b&gt;&lt;br&gt;&lt;font style=&quot;&quot;&gt;&lt;span style=&quot;font-size: 10px;&quot;&gt;Deployment node:&amp;nbsp;&lt;/span&gt;&lt;/font&gt;&lt;font style=&quot;border-color: var(--border-color); font-size: 10px;&quot;&gt;PostgreSQL server&lt;/font&gt;&lt;br&gt;&lt;/span&gt;" style="text;html=1;strokeColor=none;fillColor=none;align=left;verticalAlign=middle;whiteSpace=wrap;rounded=0;" parent="1" vertex="1">
          <mxGeometry x="413" y="-765" width="175" height="40" as="geometry" />
        </mxCell>
        <mxCell id="oLl1OlylzwqFJzHjMI7Q-76" value="&lt;span style=&quot;border-color: var(--border-color);&quot;&gt;&lt;b&gt;Docker container&lt;/b&gt;&lt;br&gt;&lt;font style=&quot;font-size: 10px;&quot;&gt;Deployment node:&amp;nbsp;&lt;/font&gt;&lt;font style=&quot;border-color: var(--border-color); font-size: 10px;&quot;&gt;PostgreSQL&lt;/font&gt;&lt;span style=&quot;border-color: var(--border-color); font-size: 10px;&quot;&gt;&amp;nbsp;image&lt;/span&gt;&lt;br&gt;&lt;/span&gt;" style="text;html=1;strokeColor=none;fillColor=none;align=left;verticalAlign=middle;whiteSpace=wrap;rounded=0;" parent="1" vertex="1">
          <mxGeometry x="403" y="-725" width="180" height="40" as="geometry" />
        </mxCell>
        <mxCell id="oLl1OlylzwqFJzHjMI7Q-77" value="&lt;span style=&quot;border-color: var(--border-color);&quot;&gt;&lt;b&gt;&lt;font style=&quot;font-size: 16px;&quot;&gt;x1&lt;/font&gt;&lt;/b&gt;&lt;br&gt;&lt;/span&gt;" style="text;html=1;strokeColor=none;fillColor=none;align=left;verticalAlign=middle;whiteSpace=wrap;rounded=0;" parent="1" vertex="1">
          <mxGeometry x="584" y="-715" width="25" height="30" as="geometry" />
        </mxCell>
        <mxCell id="oLl1OlylzwqFJzHjMI7Q-79" value="" style="endArrow=classic;html=1;rounded=1;startArrow=classic;startFill=1;exitX=1;exitY=0.5;exitDx=0;exitDy=0;entryX=1;entryY=0.5;entryDx=0;entryDy=0;edgeStyle=orthogonalEdgeStyle;exitPerimeter=0;" parent="1" source="oLl1OlylzwqFJzHjMI7Q-6" target="oLl1OlylzwqFJzHjMI7Q-67" edge="1">
          <mxGeometry relative="1" as="geometry">
            <mxPoint x="768" y="-829" as="sourcePoint" />
            <mxPoint x="548" y="-865" as="targetPoint" />
            <Array as="points">
              <mxPoint x="718" y="-815" />
              <mxPoint x="718" y="-1050" />
            </Array>
          </mxGeometry>
        </mxCell>
        <mxCell id="oLl1OlylzwqFJzHjMI7Q-80" value="&lt;b&gt;Reads from and write to&lt;/b&gt;&lt;br&gt;[JDBC]" style="edgeLabel;resizable=0;html=1;align=center;verticalAlign=middle;" parent="oLl1OlylzwqFJzHjMI7Q-79" connectable="0" vertex="1">
          <mxGeometry relative="1" as="geometry">
            <mxPoint y="-18" as="offset" />
          </mxGeometry>
        </mxCell>
        <mxCell id="oLl1OlylzwqFJzHjMI7Q-58" value="" style="endArrow=classic;html=1;rounded=0;startArrow=classic;startFill=1;exitX=1;exitY=0.5;exitDx=0;exitDy=0;entryX=0;entryY=0.5;entryDx=0;entryDy=0;" parent="1" source="oLl1OlylzwqFJzHjMI7Q-57" target="oLl1OlylzwqFJzHjMI7Q-67" edge="1">
          <mxGeometry relative="1" as="geometry">
            <mxPoint x="267" y="-725.36" as="sourcePoint" />
            <mxPoint x="387" y="-725" as="targetPoint" />
          </mxGeometry>
        </mxCell>
        <mxCell id="oLl1OlylzwqFJzHjMI7Q-59" value="&lt;b&gt;Makes API calls to&lt;/b&gt;&lt;br&gt;[JSON/HTTP]" style="edgeLabel;resizable=0;html=1;align=center;verticalAlign=middle;" parent="oLl1OlylzwqFJzHjMI7Q-58" connectable="0" vertex="1">
          <mxGeometry relative="1" as="geometry">
            <mxPoint x="-18" as="offset" />
          </mxGeometry>
        </mxCell>
        <mxCell id="gV9CViXWyQ2biXkYGxZP-1" value="&lt;span style=&quot;border-color: var(--border-color);&quot;&gt;&lt;b&gt;Project management system&lt;/b&gt;&lt;br&gt;&lt;font style=&quot;font-size: 10px;&quot;&gt;Deployment node: Docker desktop&lt;/font&gt;&lt;br&gt;&lt;/span&gt;" style="text;html=1;strokeColor=none;fillColor=none;align=left;verticalAlign=middle;whiteSpace=wrap;rounded=0;" vertex="1" parent="1">
          <mxGeometry x="389" y="-680" width="180" height="40" as="geometry" />
        </mxCell>
      </root>
    </mxGraphModel>
  </diagram>
</mxfile>
